<?xml version="1.0" encoding="utf-8"?>
<!-- Generator: Adobe Illustrator 25.4.1, SVG Export Plug-In . SVG Version: 6.00 Build 0)  -->
<!DOCTYPE svg PUBLIC "-//W3C//DTD SVG 1.1//EN" "http://www.w3.org/Graphics/SVG/1.1/DTD/svg11.dtd" [
	<!ENTITY ns_extend "http://ns.adobe.com/Extensibility/1.0/">
	<!ENTITY ns_ai "http://ns.adobe.com/AdobeIllustrator/10.0/">
	<!ENTITY ns_graphs "http://ns.adobe.com/Graphs/1.0/">
	<!ENTITY ns_vars "http://ns.adobe.com/Variables/1.0/">
	<!ENTITY ns_imrep "http://ns.adobe.com/ImageReplacement/1.0/">
	<!ENTITY ns_sfw "http://ns.adobe.com/SaveForWeb/1.0/">
	<!ENTITY ns_custom "http://ns.adobe.com/GenericCustomNamespace/1.0/">
	<!ENTITY ns_adobe_xpath "http://ns.adobe.com/XPath/1.0/">
]>
<svg version="1.1" xmlns:x="&ns_extend;" xmlns:i="&ns_ai;" xmlns:graph="&ns_graphs;"
	 xmlns="http://www.w3.org/2000/svg" xmlns:xlink="http://www.w3.org/1999/xlink" x="0px" y="0px" viewBox="0 0 64 64"
	 style="enable-background:new 0 0 64 64;" xml:space="preserve">
<style type="text/css">
	.st0{display:none;}
	.st1{display:inline;}
	.st2{fill:none;stroke:#000000;stroke-width:3;stroke-linecap:round;stroke-linejoin:round;stroke-miterlimit:10;}
	.st3{fill:none;stroke:#000000;stroke-width:2;stroke-linecap:round;stroke-linejoin:round;stroke-miterlimit:10;}
	.st4{fill:none;stroke:#FFFFFF;stroke-width:2;stroke-linecap:round;stroke-linejoin:round;stroke-miterlimit:10;}
	.st5{display:inline;fill:none;stroke:#FFFFFF;stroke-width:2;stroke-linejoin:round;stroke-miterlimit:10;}
	.st6{display:inline;fill:none;stroke:#FFFFFF;stroke-width:3;stroke-linejoin:round;stroke-miterlimit:10;}
	.st7{display:inline;fill:none;stroke:#FFFFFF;stroke-width:3;stroke-linecap:square;stroke-linejoin:round;stroke-miterlimit:10;}
	.st8{fill:none;stroke:#FFFFFF;stroke-width:3;stroke-linecap:round;stroke-linejoin:round;stroke-miterlimit:10;}
	.st9{fill:#FFFFFF;stroke:#FFFFFF;stroke-width:3;stroke-linecap:round;stroke-linejoin:round;stroke-miterlimit:10;}
	.st10{display:inline;fill:none;stroke:#FFFFFF;stroke-width:3;stroke-linecap:round;stroke-linejoin:round;stroke-miterlimit:10;}
	.st11{fill:#FFFFFF;stroke:#FFFFFF;stroke-miterlimit:10;}
	.st12{display:inline;fill:none;stroke:#FFFFFF;stroke-width:2;stroke-miterlimit:10;}
</style>
<metadata><?xpacket begin="﻿" id="W5M0MpCehiHzreSzNTczkc9d"?>
<x:xmpmeta xmlns:x="adobe:ns:meta/" x:xmptk="Adobe XMP Core 7.0-c000 79.217bca6, 2021/06/14-18:28:11        ">
   <rdf:RDF xmlns:rdf="http://www.w3.org/1999/02/22-rdf-syntax-ns#">
      <rdf:Description rdf:about=""
            xmlns:xmp="http://ns.adobe.com/xap/1.0/"
            xmlns:xmpGImg="http://ns.adobe.com/xap/1.0/g/img/"
            xmlns:xmpTPg="http://ns.adobe.com/xap/1.0/t/pg/"
            xmlns:stDim="http://ns.adobe.com/xap/1.0/sType/Dimensions#"
            xmlns:xmpG="http://ns.adobe.com/xap/1.0/g/"
            xmlns:dc="http://purl.org/dc/elements/1.1/"
            xmlns:xmpMM="http://ns.adobe.com/xap/1.0/mm/"
            xmlns:stRef="http://ns.adobe.com/xap/1.0/sType/ResourceRef#"
            xmlns:stEvt="http://ns.adobe.com/xap/1.0/sType/ResourceEvent#">
         <xmp:CreatorTool>Adobe Illustrator 25.4 (Windows)</xmp:CreatorTool>
         <xmp:CreateDate>2021-09-19T17:02:26-03:00</xmp:CreateDate>
         <xmp:MetadataDate>2021-09-19T17:02:26-03:00</xmp:MetadataDate>
         <xmp:ModifyDate>2021-09-19T17:02:26-03:00</xmp:ModifyDate>
         <xmp:Thumbnails>
            <rdf:Alt>
               <rdf:li rdf:parseType="Resource">
                  <xmpGImg:width>256</xmpGImg:width>
                  <xmpGImg:height>256</xmpGImg:height>
                  <xmpGImg:format>JPEG</xmpGImg:format>
                  <xmpGImg:image>/9j/4AAQSkZJRgABAgEASABIAAD/7QAsUGhvdG9zaG9wIDMuMAA4QklNA+0AAAAAABAASAAAAAEA&#xA;AQBIAAAAAQAB/+4ADkFkb2JlAGTAAAAAAf/bAIQABgQEBAUEBgUFBgkGBQYJCwgGBggLDAoKCwoK&#xA;DBAMDAwMDAwQDA4PEA8ODBMTFBQTExwbGxscHx8fHx8fHx8fHwEHBwcNDA0YEBAYGhURFRofHx8f&#xA;Hx8fHx8fHx8fHx8fHx8fHx8fHx8fHx8fHx8fHx8fHx8fHx8fHx8fHx8fHx8f/8AAEQgBAAEAAwER&#xA;AAIRAQMRAf/EAaIAAAAHAQEBAQEAAAAAAAAAAAQFAwIGAQAHCAkKCwEAAgIDAQEBAQEAAAAAAAAA&#xA;AQACAwQFBgcICQoLEAACAQMDAgQCBgcDBAIGAnMBAgMRBAAFIRIxQVEGE2EicYEUMpGhBxWxQiPB&#xA;UtHhMxZi8CRygvElQzRTkqKyY3PCNUQnk6OzNhdUZHTD0uIIJoMJChgZhJRFRqS0VtNVKBry4/PE&#xA;1OT0ZXWFlaW1xdXl9WZ2hpamtsbW5vY3R1dnd4eXp7fH1+f3OEhYaHiImKi4yNjo+Ck5SVlpeYmZ&#xA;qbnJ2en5KjpKWmp6ipqqusra6voRAAICAQIDBQUEBQYECAMDbQEAAhEDBCESMUEFURNhIgZxgZEy&#xA;obHwFMHR4SNCFVJicvEzJDRDghaSUyWiY7LCB3PSNeJEgxdUkwgJChgZJjZFGidkdFU38qOzwygp&#xA;0+PzhJSktMTU5PRldYWVpbXF1eX1RlZmdoaWprbG1ub2R1dnd4eXp7fH1+f3OEhYaHiImKi4yNjo&#xA;+DlJWWl5iZmpucnZ6fkqOkpaanqKmqq6ytrq+v/aAAwDAQACEQMRAD8A9U4q7FXYq7FXYq7FXYq7&#xA;FXYq7FXYq7FXYq7FXYq7FXYq7FXYq7FXYq7FXYq7FXYq7FXYq7FXYq7FXYq7FXYq7FXYq7FXYq7F&#xA;XYq7FXYq7FXYq7FXYq7FXYq7FXYq7FXYq7FXYq7FXYq7FXYq7FXYq7FXYq7FXYq7FXYq7FXYq7FX&#xA;Yq7FXYq7FXYq7FXYq7FXYq7FXYq7FXYq7FXYq7FXYq7FXYq7FXYq7FXYq7FXYq7FXYq7FXYq7FXY&#xA;q7FXYq7FXYq7FXYq7FXYq7FXYq7FXYq7FXYq7FXYq7FXYq7FXYq7FXYq7FXYq7FXYq7FXYq7FXYq&#xA;7FXYq7FXYq7FXYq7FXYq7FXYq7FXYq7FXYq7FXYq7FXYq7FXYq7FXYq7FXYq7FXYq7FXYq7FXYq7&#xA;FXYq7FXYq7FXYq7FXYq7FXYq7FXYq7FXYq7FXYq7FXYq7FXYq7FXYq7FXYq7FXYq7FXYq7FXYq7F&#xA;XYq7FXYq7FXYq7FXYq7FXYq7FXYq7FXYq7FXYq7FXYq7FXYq7FXYq7FXYq7FXYq7FXYq7FXYq7FX&#xA;Yq7FXYq7FXYq7FXYq7FXYq7FXYq7FXYq7FXYq7FXYq7FXYq7FXYq7FXYq7FXYq7FXYq7FXYq7FXY&#xA;q7FXYq7FXYq7FXYq7FXYq7FXYq7FXYq7FXYq7FXYq7FXYq7FXYq7FXYq7FXYq7FXYq7FXYq7FXYq&#xA;7FXYq7FXYq7FXYq7FXYq7FXYq7FXYq7FXYq7FXYq7FXYq7FXYq7FXYq7FXYq7FXYq7FXYq7FXYq7&#xA;FXYq7FXYq7FXYq7FXYq7FXYq7FXYq7FXYq7FXYq7FXYq7FXYq7FXYq7FXYq7FXYq7FXYq7FXYq7F&#xA;XYq7FXYq7FXYq7FXYq7FXYq7FXYq7FXYq7FXYq7FXYq7FXYq7FXYq7FXYq7FXYq7FXYq7FXYq7FX&#xA;Yq7FXYq7FXYq7FXYq7FXYq7FXYq7FXYq7FXYq7FXYq7FXYq7FXYq7FXYq7FXYq7FXYq7FXYq7FXY&#xA;q7FXYq7FXYq7FXYq7FXYq7FXYq7FXYq7FXYq7FXYq7FXYq7FXYq7FXYq7FXYq7FXYq7FXYq7FXYq&#xA;7FXYq7FXYq7FXYq7FXYq7FXYq7FXYq7FXYq7FXYq7FXYq7FXYq7FXYq7FXYq7FXYq7FXYq7FXYq7&#xA;FXYq7FXYq7FXYq7FXYq7FXYq7FXYq7FXYq7FXYq7FXYq7FXYq7FXYq7FXYq7FXYq7FXYq7FXYq7F&#xA;XYq7FXYq7FXYq7FXYq7FXYq7FXYq7FXYq7FXYq7FXYq7FXYq7FXYq7FXYq7FXYq7FXYq7FXYq7FX&#xA;Yq7FXYq7FXYq7FXYq7FXYq7FXYq7FXYq7FXYq7FXYq7FXYq7FXYq7FXYq7FXYq7FXYq7FXYq7FXY&#xA;q7FXYq7FXYq7FXYq7FXYq7FXYq7FXYq7FXYq7FXYq7FXYq7FXYq7FXYq7FXYq7FXYq7FXYq7FXYq&#xA;7FXYq7FXYq7FXYq7FXYq7FXYq7FXYq7FXYq7FXYq7FXYq7FXYq7FXYq7FXYq7FXYq7FXYq7FXYq7&#xA;FXYq7FXYq7FXYq7FXYq7FXYq7FXYq7FXYq7FXYq7FXYq7FXYq7FXYq7FXYq7FXYq7FXYq7FXYq7F&#xA;XYq7FXYq7FXYq7FXYq7FXYq7FXYq7FXYq7FXYq7FXYq7FXYq7FXYq7FXYq7FXYq7FXYq7FXYq7FX&#xA;Yq7FXYq7FXYq7FXYq7FXYq7FXYq7FXYq7FXYq7FXYq7FXYq7FXYq7FXYq7FXYq7FXYq7FXYq7FXY&#xA;q7FXYq7FXYq7FXYq7FXYq7FXYq7FXYq7FXYq7FXYq7FXYq7FXYq7FXYq7FXYq7FXYq7FXYq7FXYq&#xA;7FXYq7FXYq7FXYq7FXYq7FXYq7FXYq7FXYq7FXYq7FXYq7FXYq7FXYq7FXYq7FXYq7FXYq7FXYq7&#xA;FXYq7FXYq7FXYq7FXYq7FXYq7FXYq7FXYq7FXYq7FXYq7FXYq7FXYq7FXYq7FXYq7FXYq7FXYq7F&#xA;XYq7FXYq7FXYq7FXYq7FXYq7FXYq7FXYq7FXYq7FXYq7FXYq7FXYq7FXYq7FXYq7FXYq7FXYq7FX&#xA;Yq7FXYq7FXYq7FXYq7FXYq7FXYq7FXYq7FXYq7FXYq7FXYq7FXYq7FXYq7FXYq7FXYq7FXYq7FXY&#xA;q7FXYq7FXYq7FXYq7FXYq7FXYq7FXYq7FXYq7FXYq7FXYq7FXYq7FXYq7FXYq7FXYq7FXYq7FXYq&#xA;7FXYq7FXYq7FXYq7FXYq7FXYq7FXYq7FXYq7FXYq7FXYq7FXYq7FXYq7FXYq7FXYq7FXYq7FXYq7&#xA;FXYq7FXYq7FXYq7FXYq7FXYq7FXYq7FXYq7FXYq7FXYq7FXYq7FXYq7FXYq7FXYq7FXYq7FXYq7F&#xA;XYq7FXYq7FXYq7FXYq7FXYq7FXYq7FXYq7FXYq7FXYq7FXYq7FXYq7FXYq7FXYq7FXYq7FXYq7FX&#xA;Yq7FXYq7FXYq7FXYq7FXYq7FXYq7FXYq7FXYq7FXYq7FXYq7FXYq7FXYq7FXYq7FXYq7FXYq7FXY&#xA;q7FXYq7FXYq7FXYq7FXYq7FXYq7FXYq7FX//2Q==</xmpGImg:image>
               </rdf:li>
            </rdf:Alt>
         </xmp:Thumbnails>
         <xmpTPg:MaxPageSize rdf:parseType="Resource">
            <stDim:w>64.000000</stDim:w>
            <stDim:h>64.000000</stDim:h>
            <stDim:unit>Pixels</stDim:unit>
         </xmpTPg:MaxPageSize>
         <xmpTPg:NPages>1</xmpTPg:NPages>
         <xmpTPg:HasVisibleTransparency>False</xmpTPg:HasVisibleTransparency>
         <xmpTPg:HasVisibleOverprint>False</xmpTPg:HasVisibleOverprint>
         <xmpTPg:SwatchGroups>
            <rdf:Seq>
               <rdf:li rdf:parseType="Resource">
                  <xmpG:groupName>Grupo de amostras padrão</xmpG:groupName>
                  <xmpG:groupType>0</xmpG:groupType>
               </rdf:li>
            </rdf:Seq>
         </xmpTPg:SwatchGroups>
         <dc:format>image/svg+xml</dc:format>
         <xmpMM:DerivedFrom rdf:parseType="Resource">
            <stRef:instanceID>xmp.iid:e1035b6f-193f-734a-b179-d38471fa1d84</stRef:instanceID>
            <stRef:documentID>xmp.did:e1035b6f-193f-734a-b179-d38471fa1d84</stRef:documentID>
            <stRef:originalDocumentID>xmp.did:e1035b6f-193f-734a-b179-d38471fa1d84</stRef:originalDocumentID>
         </xmpMM:DerivedFrom>
         <xmpMM:DocumentID>xmp.did:2a1ccc0f-fb96-1641-989b-06f888706376</xmpMM:DocumentID>
         <xmpMM:InstanceID>xmp.iid:2a1ccc0f-fb96-1641-989b-06f888706376</xmpMM:InstanceID>
         <xmpMM:OriginalDocumentID>xmp.did:e1035b6f-193f-734a-b179-d38471fa1d84</xmpMM:OriginalDocumentID>
         <xmpMM:History>
            <rdf:Seq>
               <rdf:li rdf:parseType="Resource">
                  <stEvt:action>saved</stEvt:action>
                  <stEvt:instanceID>xmp.iid:e1035b6f-193f-734a-b179-d38471fa1d84</stEvt:instanceID>
                  <stEvt:when>2021-09-19T16:49:33-03:00</stEvt:when>
                  <stEvt:softwareAgent>Adobe Illustrator 25.4 (Windows)</stEvt:softwareAgent>
                  <stEvt:changed>/</stEvt:changed>
               </rdf:li>
               <rdf:li rdf:parseType="Resource">
                  <stEvt:action>saved</stEvt:action>
                  <stEvt:instanceID>xmp.iid:2a1ccc0f-fb96-1641-989b-06f888706376</stEvt:instanceID>
                  <stEvt:when>2021-09-19T17:02:26-03:00</stEvt:when>
                  <stEvt:softwareAgent>Adobe Illustrator 25.4 (Windows)</stEvt:softwareAgent>
                  <stEvt:changed>/</stEvt:changed>
               </rdf:li>
            </rdf:Seq>
         </xmpMM:History>
      </rdf:Description>
   </rdf:RDF>
</x:xmpmeta>
                                                                                                    
                                                                                                    
                                                                                                    
                                                                                                    
                                                                                                    
                                                                                                    
                                                                                                    
                                                                                                    
                                                                                                    
                                                                                                    
                                                                                                    
                                                                                                    
                                                                                                    
                                                                                                    
                                                                                                    
                                                                                                    
                                                                                                    
                                                                                                    
                                                                                                    
                                                                                                    
                           
<?xpacket end="w"?>
	</metadata>
<g id="Camada_1" class="st0">
	<g id="Camada_1_00000005236522067073926270000017073945524847863991_">
		<g class="st1">
			<path class="st2" d="M54.5,14.5l-2.8,2.8l-2.9,2.9c2.4,3.3,3.8,7.4,3.8,11.8c0,3.1-0.7,6.1-2,8.7l3.3,2.3l3.3,2.3
				c2.1-4,3.3-8.5,3.3-13.4C60.5,25.4,58.2,19.3,54.5,14.5z"/>
			<path class="st2" d="M46.5,46.5c-3.7,3.7-8.9,6-14.5,6c-11.3,0-20.5-9.2-20.5-20.5c0-1.2,0.1-2.4,0.3-3.6L8,27l-3.8-1.4
				c-0.5,2-0.7,4.2-0.7,6.4c0,15.7,12.8,28.5,28.5,28.5c8.4,0,15.9-3.6,21.2-9.4l-3.3-2.3L46.5,46.5z"/>
			<path class="st2" d="M14.2,21.8c3-5.2,8.2-8.9,14.3-10V7.8v-4C19,4.9,10.9,10.8,6.6,19l3.8,1.4L14.2,21.8z"/>
			<path class="st2" d="M46.7,12.4l2.8-2.8c-4-3.1-8.8-5.2-14-5.8v4v4.1c3,0.5,5.9,1.7,8.3,3.4L46.7,12.4z"/>
		</g>
		<g class="st1">
			<rect x="22" y="32" class="st3" width="3.8" height="8.8"/>
			<rect x="38.2" y="23.2" class="st3" width="3.8" height="17.6"/>
			<rect x="30.1" y="27.6" class="st3" width="3.8" height="13.2"/>
			<line class="st3" x1="16.6" y1="34.8" x2="24.6" y2="23.2"/>
			<line class="st3" x1="30.1" y1="24.6" x2="24.6" y2="23.2"/>
			<line class="st3" x1="38.2" y1="18.2" x2="30.1" y2="24.6"/>
			<polyline class="st3" points="35.7,16.6 39.7,16.6 39.7,20.6 			"/>
		</g>
	</g>
	<g id="Camada_3">
		<g class="st1">
			<line class="st4" x1="8.8" y1="49.7" x2="55.2" y2="49.7"/>
			<rect x="19.9" y="34.4" class="st4" width="6.3" height="11.4"/>
			<rect x="46.5" y="23" class="st4" width="6.3" height="22.7"/>
			<rect x="33.2" y="28.7" class="st4" width="6.3" height="17"/>
			<line class="st4" x1="12.9" y1="37.7" x2="24.2" y2="24.4"/>
			<line class="st4" x1="35.8" y1="26.1" x2="24.2" y2="24.4"/>
			<line class="st4" x1="49.5" y1="13.1" x2="35.8" y2="26.1"/>
			<polyline class="st4" points="43.6,13.1 49.5,13.1 49.5,19.1 			"/>
		</g>
	</g>
	<g id="Camada_4">
		<rect x="8.2" y="13" class="st5" width="46.9" height="37.8"/>
		<path class="st5" d="M31.8,13.4v36.9V13.4z"/>
		<rect x="36.8" y="38" class="st6" width="13.9" height="7.8"/>
		<rect x="12.7" y="17.6" class="st6" width="13.9" height="7.8"/>
		<line class="st7" x1="12.7" y1="32.1" x2="21" y2="32.1"/>
		<line class="st7" x1="25.8" y1="32.1" x2="26.7" y2="32.1"/>
		<line class="st7" x1="12.6" y1="38" x2="20.9" y2="38"/>
		<line class="st7" x1="25.7" y1="38" x2="26.6" y2="38"/>
		<line class="st7" x1="12.6" y1="44.2" x2="20.9" y2="44.1"/>
		<line class="st7" x1="25.7" y1="44.1" x2="26.6" y2="44.1"/>
		<line class="st7" x1="37.1" y1="19.4" x2="45.4" y2="19.4"/>
		<line class="st7" x1="50.2" y1="19.4" x2="51.1" y2="19.4"/>
		<line class="st7" x1="37" y1="25.3" x2="45.3" y2="25.3"/>
		<line class="st7" x1="50.1" y1="25.3" x2="51" y2="25.3"/>
		<line class="st7" x1="37" y1="31.4" x2="45.3" y2="31.4"/>
		<line class="st7" x1="50.1" y1="31.4" x2="51" y2="31.4"/>
	</g>
	<g id="Camada_6">
		<g class="st1">
			<rect x="8.6" y="13.4" class="st8" width="46.5" height="37.2"/>
			<circle class="st9" cx="22" cy="26" r="2.9"/>
			<path class="st9" d="M15.1,41.3c0-5.7,3.2-10.3,7.1-10.3s7.1,4.6,7.1,10.3"/>
			<path class="st8" d="M15.1,41.3h14.1H15.1z"/>
			<line class="st8" x1="34.8" y1="23.1" x2="48.6" y2="23.1"/>
			<line class="st8" x1="40.6" y1="40.8" x2="48.6" y2="40.8"/>
			<line class="st8" x1="32.5" y1="31.9" x2="48.6" y2="31.9"/>
		</g>
	</g>
	<g id="Camada_5">
	</g>
	<line class="st10" x1="20.2" y1="51.1" x2="29" y2="33.6"/>
	<line class="st10" x1="36.5" y1="51.1" x2="29" y2="33.6"/>
	<line class="st10" x1="55.4" y1="48.5" x2="42.5" y2="32"/>
	<line class="st10" x1="33.6" y1="43.2" x2="42.5" y2="32"/>
</g>
<g id="Camada_5_00000109007933569398856180000010811400014938435716_">
	<g>
		<path class="st11" d="M47.7,21.3c-0.5-0.9-1.2-1.4-2.3-1.4c-0.7,0-1.3,0-2,0c-6.4,0-12.7,0-19.1,0c-0.3,0-0.4-0.1-0.5-0.4
			c-0.4-1.4-0.8-2.7-1.2-4.1c-0.4-1.3-1.4-1.8-2.7-1.5c-1,0.3-1.9,0.6-2.9,0.9c-0.4,0.1-0.8,0.3-1,0.6c-1.1,1.2-2.2,2.3-3.3,3.5
			c-0.5,0.5-0.6,1.2-0.8,1.8c-0.4,2.4-0.4,4.9-0.2,7.3c0.4,4.7,1.7,9.1,3.9,13.3c1.3,2.5,2.9,4.9,4.9,6.9c0.4,0.4,0.9,0.7,1.5,0.9
			c1.5,0.3,3,0.7,4.5,1c0.1,0,0.1,0,0.1,0.1c0.3,0,0.5,0,0.8,0c1-0.3,2-0.6,3.1-0.9c1.4-0.4,2-1.4,1.6-2.8c-0.2-0.8-0.5-1.5-0.7-2.3
			c0.2,0,0.3,0,0.4,0c4.5,0,9,0,13.5,0c1.5,0,2.2-0.5,2.7-1.9c0,0,0,0,0.1,0c0-6.8,0-13.5,0-20.3C47.9,21.7,47.8,21.5,47.7,21.3z
			 M24.6,22.1c-0.1-0.3-0.2-0.6-0.3-0.8c0-0.1,0-0.2,0.1-0.2c0.1,0,0.2,0,0.2,0c6.8,0,13.6,0,20.4,0c0.2,0,0.3,0,0.5,0
			c0,0.1-0.1,0.2-0.2,0.2c-4.1,3.8-8.2,7.6-12.3,11.4c-0.7,0.7-1.3,0.7-2,0c-2.8-2.5-5.5-5.1-8.3-7.6c-0.1-0.1-0.2-0.1-0.3-0.3
			c0.2-0.1,0.5-0.1,0.7-0.2C24.3,24.2,24.9,23.2,24.6,22.1z M28.2,32c-2.3,2.2-4.6,4.4-6.9,6.7c-0.2,0.2-0.2,0.1-0.4,0
			c-2-2.6-3.1-5.6-3.3-8.7c0-1.3,0.1-2.4,0.3-3.5c0-0.2,0.1-0.3,0.3-0.3c0.9-0.3,1.8-0.5,2.7-0.8c0.2-0.1,0.3,0,0.4,0.1
			c2.3,2.1,4.5,4.2,6.8,6.3C28.3,31.8,28.3,31.9,28.2,32z M30.1,48.2c-0.6,0.2-0.6,0.2-0.8-0.4c-0.4-1.4-0.9-2.8-1.3-4.2
			C28,43.2,27.8,43,27.5,43c-0.4,0-0.7,0.4-0.6,0.9c0.4,1.5,0.9,3,1.4,4.4c0.1,0.3,0,0.4-0.3,0.5c-0.7,0.3-1.3,0.2-2,0.1
			c-1.3-0.3-2.6-0.6-3.9-0.9c-0.3-0.1-0.6-0.2-0.8-0.4c-1.7-1.7-3-3.7-4.2-5.7c-2-3.6-3.4-7.5-4-11.6c-0.3-1.6-0.4-3.2-0.4-5
			c0-1.5,0.1-3.1,0.4-4.6c0.1-0.4,0.2-0.6,0.5-0.9c1.1-1.1,2.1-2.1,3.1-3.3c0.4-0.5,1-0.5,1.6-0.7c0.2-0.1,0.2,0.1,0.2,0.2
			c0.4,1.4,0.9,2.9,1.3,4.3c0,0.1,0.1,0.3,0.1,0.4c0.1,0.3,0.4,0.4,0.7,0.3c0.3-0.1,0.5-0.3,0.4-0.6c0-0.2-0.1-0.3-0.1-0.4
			c-0.4-1.4-0.9-2.9-1.3-4.3c-0.1-0.2-0.1-0.3,0.2-0.4c1.2-0.3,1.4-0.2,1.7,0.9c0.6,2,1.2,4.1,1.9,6.1c0.2,0.7,0,1-0.6,1.2
			c-0.7,0.2-0.7,0.2-0.9-0.5c-0.1-0.4-0.4-0.6-0.7-0.5c-0.4,0-0.6,0.4-0.5,0.8c0,0.2,0.1,0.4,0.2,0.5c0.1,0.2,0,0.3-0.2,0.3
			c-0.9,0.3-1.9,0.6-2.8,0.8c-0.6,0.2-1,0.6-1.1,1.2c-0.5,2.5-0.4,5.1,0.3,7.6c0.8,2.7,2.1,5.1,4.1,7.1c0.5,0.5,1,0.6,1.6,0.4
			c0.9-0.3,1.9-0.5,2.8-0.8c0.2-0.1,0.3,0,0.3,0.2c0,0.2,0.1,0.4,0.2,0.5c0.1,0.3,0.4,0.5,0.7,0.4c0.3-0.1,0.5-0.4,0.4-0.7
			c0-0.2-0.1-0.4-0.2-0.6c-0.1-0.1,0-0.2,0.1-0.2c0,0,0,0,0.1,0c1.2-0.4,1.4-0.2,1.7,0.9c0.6,2,1.2,4.1,1.8,6.1
			C31,47.6,30.9,47.9,30.1,48.2z M45.3,43c-4.7,0-9.4,0-14.1,0c-0.2,0-0.3-0.1-0.4-0.3c-0.3-0.9-0.5-1.8-0.8-2.6
			c-0.4-1.3-1.4-1.8-2.7-1.5c-1.6,0.5-3.2,0.9-4.8,1.4c-0.1,0-0.2,0.1-0.3,0.1c-0.2,0-0.3-0.1-0.3-0.2c-0.1-0.1,0.1-0.2,0.1-0.2
			c2.3-2.2,4.7-4.5,7-6.7c0.2-0.2,0.2-0.2,0.4,0c0.3,0.3,0.7,0.7,1,1c1,0.9,2.3,0.9,3.3,0c0.3-0.3,0.7-0.6,1-0.9
			c0.2-0.2,0.3-0.2,0.5,0c2.2,2.1,4.3,4.2,6.5,6.3c1.2,1.2,2.5,2.4,3.7,3.6c0.1,0.1,0.1,0.1,0.1,0.2C45.5,43,45.4,43,45.3,43z
			 M46.7,42.1c-0.2,0-0.2-0.1-0.3-0.2c-3.4-3.3-6.8-6.5-10.2-9.8c-0.1-0.1-0.2-0.2,0-0.4c3.5-3.2,6.9-6.4,10.4-9.6
			c0,0,0.1-0.1,0.2-0.1C46.7,28.7,46.7,35.4,46.7,42.1z"/>
	</g>
</g>
<g id="Camada_3_00000106829388929931926900000001236404112573829039_" class="st0">
	<g class="st1">
		<path class="st8" d="M20.2,22.1h26.2v-6.6c0-1.4-1.2-2.6-2.6-2.6H11.2c-1.4,0-2.6,1.2-2.6,2.6v23.8c0,1.4,1.2,2.6,2.6,2.6h6.4
			V24.7C17.6,23.3,18.8,22.1,20.2,22.1z"/>
		<path class="st8" d="M17.6,41.9v6.6c0,1.4,1.2,2.6,2.6,2.6h32.6c1.4,0,2.6-1.2,2.6-2.6V24.7c0-1.4-1.2-2.6-2.6-2.6h-6.4"/>
	</g>
</g>
<g id="Camada_2" class="st0">
	<polyline class="st12" points="35.5,46.2 10.6,46.2 10.6,17.6 24.1,17.6 	"/>
	<line class="st12" x1="30.2" y1="17.6" x2="46.3" y2="17.6"/>
	<path class="st12" d="M34.8,27.5c0,0.4,0,0.8-0.1,1.2c0,0.2,0.1,0.3,0.2,0.4c1.2,0.9,2,2,2.3,3.2c0.4,1.5,0.2,2.9-0.6,4.2
		c-0.5,0.7-1.1,1.4-1.9,2c-0.3,0.2-0.6,0.3-1,0.2c-0.4-0.1-0.5-0.3-0.5-0.6c0.1-0.5,0.2-0.9,0.2-1.4c-0.1-0.6-0.3-1.1-0.6-1.6
		c-0.1-0.2-0.5-0.6-0.5-0.6c0,0-9.9,0-10.1,0c-0.3,0.1-0.4,0.3-0.6,0.5c-0.3,0.5-0.5,1-0.6,1.5c0,0.4,0.2,1.4,0.2,1.5
		c0,0.3-0.1,0.5-0.4,0.6c-0.3,0.1-0.7,0.1-1-0.1c-0.9-0.7-1.6-1.4-2.1-2.3c-0.7-1.5-0.9-2.9-0.4-4.2c0.4-1,1.1-2,2.3-3
		c0.1-0.1,0.2-0.2,0.2-0.4c0-0.4-0.1-0.8-0.1-1.2c0-1.3,0.2-2.6,0.6-3.8c0.8-2.5,2.5-4.8,5-7c0.4-0.3,0.8-0.6,1.2-1
		c0.5-0.3,1-0.3,1.4,0c0.5,0.4,1,0.8,1.5,1.2c2.6,2.2,4.2,4.7,5,7.5C34.7,25.4,34.8,26.5,34.8,27.5z"/>
	<path class="st12" d="M30.4,40c0,1.1-3.4,3.2-3.4,3.2s-3.4-2.1-3.4-3.2s1.5-2,3.4-2S30.4,38.8,30.4,40z"/>
	<ellipse class="st12" cx="27" cy="25.9" rx="2.9" ry="2.8"/>
	<polyline class="st12" points="53.5,43.2 53.5,49.1 46.3,49.1 35.5,49.1 35.5,43.2 46.3,43.2 46.3,15.2 53.5,15.2 53.5,49.1 
		46.3,49.1 	"/>
	<line class="st12" x1="46.3" y1="17.6" x2="49.7" y2="17.6"/>
	<line class="st12" x1="46.3" y1="22.6" x2="49.7" y2="22.6"/>
	<line class="st12" x1="46.3" y1="27.5" x2="49.7" y2="27.5"/>
	<line class="st12" x1="46.3" y1="32.5" x2="49.7" y2="32.5"/>
	<line class="st12" x1="46.3" y1="37.5" x2="49.7" y2="37.5"/>
	<line class="st12" x1="46.3" y1="42.4" x2="49.7" y2="42.4"/>
	<line class="st12" x1="41.1" y1="43.2" x2="41.1" y2="46.2"/>
	<path class="st12" d="M43.4,31.3"/>
	<path class="st12" d="M43.4,28.3"/>
	<line class="st12" x1="46.3" y1="43.3" x2="46.3" y2="46.2"/>
</g>
<g id="Camada_4_00000161604397477034886350000007912226724869329597_">
</g>
</svg>
